HIERARCHY
ROOT Hips
{
	OFFSET 0.000000 0.000000 0.000000
	CHANNELS 6 Xposition Yposition Zposition Zrotation Yrotation Xrotation 
	JOINT LHipJoint
	{
		OFFSET 0.000000 0.000000 0.000000
		CHANNELS 3 Zrotation Yrotation Xrotation
		JOINT LeftUpLeg
		{
			OFFSET 1.363060 -1.794630 0.839290
			CHANNELS 3 Zrotation Yrotation Xrotation
			JOINT LeftLeg
			{
				OFFSET 2.448110 -6.726130 0.000000
				CHANNELS 3 Zrotation Yrotation Xrotation
				JOINT LeftFoot
				{
					OFFSET 2.562200 -7.039590 0.000000
					CHANNELS 3 Zrotation Yrotation Xrotation
					JOINT LeftToeBase
					{
						OFFSET 0.157640 -0.433110 2.322550
						CHANNELS 3 Zrotation Yrotation Xrotation
						End Site
						{
							OFFSET 0.000000 0.000000 0.000000
						}
					}
				}
			}
		}
	}
	JOINT RHipJoint
	{
		OFFSET 0.000000 0.000000 0.000000
		CHANNELS 3 Zrotation Yrotation Xrotation
		JOINT RightUpLeg
		{
			OFFSET -1.305520 -1.794630 0.839290
			CHANNELS 3 Zrotation Yrotation Xrotation
			JOINT RightLeg
			{
				OFFSET -2.542530 -6.985550 0.000000
				CHANNELS 3 Zrotation Yrotation Xrotation
				JOINT RightFoot
				{
					OFFSET -2.568260 -7.056230 0.000000
					CHANNELS 3 Zrotation Yrotation Xrotation
					JOINT RightToeBase
					{
						OFFSET -0.164730 -0.452590 2.363150
						CHANNELS 3 Zrotation Yrotation Xrotation
						End Site
						{
							OFFSET 0.000000 0.000000 0.000000
						}
					}
				}
			}
		}
	}
	JOINT LowerBack
	{
		OFFSET 0.000000 0.000000 0.000000
		CHANNELS 3 Zrotation Yrotation Xrotation
		JOINT Spine
		{
			OFFSET 0.028270 2.035590 -0.193380
			CHANNELS 3 Zrotation Yrotation Xrotation
			JOINT Spine1
			{
				OFFSET 0.056720 2.048850 -0.042750
				CHANNELS 3 Zrotation Yrotation Xrotation
				JOINT Neck
				{
					OFFSET 0.000000 0.000000 0.000000
					CHANNELS 3 Zrotation Yrotation Xrotation
					JOINT Neck1
					{
						OFFSET -0.054170 1.746240 0.172020
						CHANNELS 3 Zrotation Yrotation Xrotation
						JOINT Head
						{
							OFFSET 0.104070 1.761360 -0.123970
							CHANNELS 3 Zrotation Yrotation Xrotation
							End Site
							{
								OFFSET 0.000000 0.000000 0.000000
							}
						}
					}
				}
				JOINT LeftShoulder
				{
					OFFSET 0.000000 0.000000 0.000000
					CHANNELS 3 Zrotation Yrotation Xrotation
					JOINT LeftArm
					{
						OFFSET 3.362410 1.200890 -0.311210
						CHANNELS 3 Zrotation Yrotation Xrotation
						JOINT LeftForeArm
						{
							OFFSET 4.983000 -0.000000 -0.000000
							CHANNELS 3 Zrotation Yrotation Xrotation
							JOINT LeftHand
							{
								OFFSET 3.483560 -0.000000 -0.000000
								CHANNELS 3 Zrotation Yrotation Xrotation
								JOINT LeftFingerBase
								{
									OFFSET 0.000000 0.000000 0.000000
									CHANNELS 3 Zrotation Yrotation Xrotation
									JOINT LeftHandIndex1
									{
										OFFSET 0.715260 -0.000000 -0.000000
										CHANNELS 3 Zrotation Yrotation Xrotation
										End Site
										{
											OFFSET 0.000000 0.000000 0.000000
										}
									}
								}
								JOINT LThumb
								{
									OFFSET 0.000000 0.000000 0.000000
									CHANNELS 3 Zrotation Yrotation Xrotation
									End Site
									{
										OFFSET 0.000000 0.000000 0.000000
									}
								}
							}
						}
					}
				}
				JOINT RightShoulder
				{
					OFFSET 0.000000 0.000000 0.000000
					CHANNELS 3 Zrotation Yrotation Xrotation
					JOINT RightArm
					{
						OFFSET -3.136600 1.374050 -0.404650
						CHANNELS 3 Zrotation Yrotation Xrotation
						JOINT RightForeArm
						{
							OFFSET -5.241900 -0.000000 -0.000000
							CHANNELS 3 Zrotation Yrotation Xrotation
							JOINT RightHand
							{
								OFFSET -3.444170 -0.000000 -0.000000
								CHANNELS 3 Zrotation Yrotation Xrotation
								JOINT RightFingerBase
								{
									OFFSET 0.000000 0.000000 0.000000
									CHANNELS 3 Zrotation Yrotation Xrotation
									JOINT RightHandIndex1
									{
										OFFSET -0.622530 -0.000000 -0.000000
										CHANNELS 3 Zrotation Yrotation Xrotation
										End Site
										{
											OFFSET 0.000000 0.000000 0.000000
										}
									}
								}
								JOINT RThumb
								{
									OFFSET 0.000000 0.000000 0.000000
									CHANNELS 3 Zrotation Yrotation Xrotation
									End Site
									{
										OFFSET 0.000000 0.000000 0.000000
									}
								}
							}
						}
					}
				}
			}
		}
	}
}
MOTION
Frames: 6
Frame Time: 0.008333
17.524663 17.264228 -20.368231 7.931284 -14.316308 15.146566 -14.029126 0.810348 9.836247 -4.688739 6.833391 -11.927514 2.363393 11.042833 30.723034 3.016365 11.042833 45.442712 0.089700 -1.931400 -5.316200 7.730118 5.016169 -4.812271 9.236395 9.405012 -48.844879 -2.084188 -12.124466 34.631446 -2.353184 1.979267 23.185465 -2.101600 -9.074600 26.029000 -0.220878 -7.260172 12.442739 1.860653 -8.289610 -2.841163 -1.286787 -5.362822 -0.841269 -2.032869 2.134609 -13.804325 -1.249194 2.653813 3.171590 -2.820400 0.813400 4.416600 3.516482 -8.150047 0.513110 -123.468040 -46.283404 120.382405 60.709200 -48.257210 -46.166401 -2.219328 -3.902526 13.192164 46.829140 21.269762 26.831600 -7.125000 0.000000 0.000000 25.699300 65.370800 13.039900 -3.435310 5.931273 1.325937 78.752247 32.578348 9.784598 -121.376015 55.947065 -91.682320 2.633369 -1.059763 -18.271977 -46.141962 45.445784 -38.814400 7.125000 0.000000 0.000000 -3.640700 27.065000 -4.905000 
17.468313 17.384843 -19.949827 8.045915 -14.221847 15.071603 -13.570349 0.566827 9.307995 -4.669149 7.144286 -13.066117 2.960889 11.798983 33.474581 3.692593 8.813662 46.791264 0.601200 -4.963500 -13.804600 7.577520 4.854005 -4.491869 9.285137 10.359681 -48.848902 -2.939931 -12.859748 37.238466 -1.837840 0.971933 21.374117 -3.802800 -11.893300 35.355500 0.328374 -7.190802 12.784426 1.921251 -8.135631 -2.882910 -1.326435 -5.221205 -1.230032 -2.270905 2.253928 -13.530028 -1.503181 2.828185 3.206887 -2.899000 0.873400 4.429700 3.591319 -8.138496 0.494550 -124.246415 -45.875755 119.993922 61.278954 -48.565755 -46.934164 -2.159087 -3.875775 14.672639 45.959997 20.052588 25.057100 -7.125000 0.000000 0.000000 23.502400 63.633800 10.920400 -3.439813 6.003158 1.265760 78.183355 32.588554 9.538266 -122.639207 55.374306 -93.201020 1.765540 -0.871772 -18.505236 -16.184988 37.924409 -11.274800 7.125000 0.000000 0.000000 8.986100 9.981400 10.526600 
17.456916 17.345588 -19.583235 7.853694 -14.427329 14.923204 -12.690669 0.164095 8.387428 -4.827566 7.162708 -14.646880 4.203176 13.200458 38.958211 4.036274 5.005409 46.282655 0.859800 -5.913100 -16.532500 7.364084 4.647702 -4.115798 8.893578 12.821440 -48.997861 -4.371076 -13.768174 40.234701 0.909207 -6.308490 15.231411 -1.819200 -8.478900 24.178200 0.970898 -7.046928 13.620343 1.991502 -7.856676 -2.926685 -1.387314 -5.002384 -1.706333 -2.302057 2.359913 -13.701803 -1.657220 2.987681 3.305447 -2.958600 0.927000 4.605100 3.669906 -8.122359 0.466926 -124.947836 -45.713176 119.956901 61.817464 -48.835355 -47.584548 -2.165580 -3.832415 15.628305 46.168525 19.371234 24.645500 -7.125000 0.000000 0.000000 23.511500 62.899400 10.520500 -3.431509 6.146515 1.232479 77.526986 32.948334 9.334257 -123.435980 54.968741 -94.181385 1.151186 -0.971527 -18.814310 -2.422205 32.471399 -1.769700 7.125000 0.000000 0.000000 16.092100 2.651400 17.511900 
17.454595 17.256103 -19.253576 7.414786 -14.624248 14.753939 -11.829193 -0.127515 7.470878 -4.548421 7.126477 -16.276492 5.623529 14.480844 44.142852 4.074541 2.449222 45.364128 0.801400 -5.713700 -15.955900 7.187792 4.491222 -3.734632 8.388968 15.531003 -48.818027 -5.213419 -14.354306 42.947067 0.983702 -6.048544 13.609366 -2.111100 -9.093800 26.089100 1.621812 -6.735870 14.633655 2.056994 -7.316103 -2.876653 -1.481347 -4.685484 -1.932312 -2.143046 2.281640 -14.256378 -1.697241 2.902341 3.432411 -3.013400 0.867300 4.855300 3.760749 -8.107709 0.444528 -125.856233 -45.707153 120.621236 62.381620 -49.133712 -48.276209 -2.157716 -3.834796 16.175157 46.328344 19.013021 24.484100 -7.125000 0.000000 0.000000 23.580500 62.570900 10.370900 -3.423131 6.274336 1.221696 76.610529 33.540751 8.579427 -124.234661 54.581698 -94.923481 0.884109 -1.053624 -18.929862 2.794022 30.302734 1.211400 7.125000 0.000000 0.000000 19.039900 0.174200 20.248300 
17.440560 17.174216 -18.928772 7.234005 -14.768786 13.986065 -11.009566 -0.294776 6.622212 -4.221362 6.947011 -17.713760 7.542044 15.815034 49.687019 3.599413 2.341838 43.623700 0.412400 -4.122400 -11.421300 7.079339 4.273239 -3.316096 8.051134 17.683185 -47.979195 -6.056104 -14.858796 45.556890 1.267478 -6.362293 11.204478 -1.798600 -8.433300 24.038100 1.850294 -6.392945 16.330063 2.079552 -6.761951 -2.886275 -1.444322 -4.350994 -2.931936 -2.347396 2.156015 -13.502972 -1.552612 2.684397 3.346925 -2.910400 0.786000 4.677300 3.776101 -8.119069 0.431666 -126.345249 -45.137530 120.739693 62.818442 -49.381770 -48.910736 -2.129018 -3.847033 16.619653 45.975086 17.980366 23.345900 -7.125000 0.000000 0.000000 22.600600 61.235200 9.200700 -3.373104 6.384644 1.223709 75.732125 33.276676 7.813259 -125.092161 54.199270 -95.564044 0.837489 -1.093315 -18.729526 3.750568 30.466122 1.750300 7.125000 0.000000 0.000000 19.580200 0.295000 20.940700 
17.416500 17.122404 -18.590671 7.171296 -14.611274 12.889275 -10.267629 -0.461154 5.842727 -3.650827 6.514863 -18.747172 9.046516 16.860742 54.915939 3.627024 -0.204706 42.241051 0.928400 -6.138300 -17.186200 7.023699 4.057491 -3.073302 8.225462 18.822200 -46.440928 -6.814807 -15.226945 47.819509 1.823810 -7.516375 8.378845 -1.511100 -7.763400 21.997800 2.286971 -6.096168 16.658805 1.902687 -6.370567 -2.286027 -2.536696 -4.121694 -1.192575 -1.948235 1.862084 -13.504936 -1.302153 2.224179 2.758173 -2.856600 0.598300 4.146500 3.800464 -7.962035 0.614445 -126.843128 -46.183322 122.727344 63.358285 -49.645972 -49.530622 -2.158436 -3.806198 16.054241 46.927641 16.986208 23.268100 -7.125000 0.000000 0.000000 23.772400 60.355800 9.208400 -3.502787 6.263937 1.372672 75.422759 35.225856 6.403143 -125.024235 54.223338 -95.498142 0.972922 -1.153064 -17.869865 1.970657 33.137645 0.801500 7.125000 0.000000 0.000000 18.554900 3.027000 20.596500 
